<svg id="Vrstva_2" data-name="Vrstva 2" xmlns="http://www.w3.org/2000/svg" viewBox="0 0 724.41 500"><defs><style>.cls-1{fill:#87aa45;}.cls-2,.cls-3{fill:none;stroke:#87aa45;stroke-linejoin:round;}.cls-2,.cls-3,.cls-5{stroke-linecap:round;}.cls-2{stroke-width:17px;}.cls-3{stroke-width:15px;}.cls-4,.cls-5{fill:#add95b;stroke:#add95b;stroke-miterlimit:10;stroke-width:3px;}</style></defs><circle class="cls-1" cx="296.8" cy="188.37" r="15.91"/><polyline class="cls-2" points="272.17 258.5 303.45 251.58 303.45 221.69 338.87 198.44 369.04 225.01"/><polyline class="cls-3" points="386.27 292.05 316.09 292.05 361.47 246.68 361.47 327.54"/><path class="cls-4" d="M80.58,288.92a5.72,5.72,0,0,1-1.71-4.21V209.42H52.07a5.38,5.38,0,0,1-5.52-5.51,5.53,5.53,0,0,1,1.58-4,5.21,5.21,0,0,1,3.94-1.64H117.5a5.6,5.6,0,0,1,5.65,5.65,5.26,5.26,0,0,1-1.64,3.94,5.58,5.58,0,0,1-4,1.57H90.83v75.29a5.59,5.59,0,0,1-1.78,4.21,6,6,0,0,1-4.27,1.7A5.74,5.74,0,0,1,80.58,288.92Z"/><path class="cls-4" d="M139.31,288.92a5.72,5.72,0,0,1-1.71-4.21V204.3a5.93,5.93,0,0,1,1.71-4.27,5.61,5.61,0,0,1,4.2-1.77h30.62q17.87,0,26.8,7.35a23.82,23.82,0,0,1,8.94,19.32,25.11,25.11,0,0,1-4.41,14.39,24.52,24.52,0,0,1-12.81,9.39,18.09,18.09,0,0,1,12.95,11.76,51.5,51.5,0,0,1,3.48,18.2v6a5.82,5.82,0,0,1-5.91,5.91,6,6,0,0,1-4.41-1.64,5.79,5.79,0,0,1-1.64-4.27v-3.94a58.52,58.52,0,0,0-1.18-12.15,19.55,19.55,0,0,0-5.65-10q-4.47-4.4-13.53-4.4h-27.2v30.48a5.59,5.59,0,0,1-1.78,4.21,6,6,0,0,1-4.27,1.7A5.74,5.74,0,0,1,139.31,288.92Zm34-46q11.29,0,17.93-4.47a14.32,14.32,0,0,0,6.64-12.61q0-7.89-5.72-12.09t-19.51-4.2H149.56v33.37Z"/><path class="cls-4" d="M232.86,288.92a5.72,5.72,0,0,1-1.71-4.21V203.64a6,6,0,0,1,1.71-4.27,5.61,5.61,0,0,1,4.2-1.77,6.06,6.06,0,0,1,6.05,6v81.07a5.59,5.59,0,0,1-1.78,4.21,6,6,0,0,1-4.27,1.7A5.74,5.74,0,0,1,232.86,288.92Z"/><path class="cls-5" d="M431,288.92a5.62,5.62,0,0,1-1.77-4.21v-33.5l-31.4-44a6.68,6.68,0,0,1-1.05-3.55,6.06,6.06,0,0,1,1.64-4.27,5.39,5.39,0,0,1,4.14-1.77,6,6,0,0,1,5.25,3l27.46,39.94,27.47-39.94a6,6,0,0,1,5.25-3,5.63,5.63,0,0,1,4.21,1.77,5.52,5.52,0,0,1,1.57,4.27,6.68,6.68,0,0,1-1.05,3.55l-31.53,44v33.5a5.82,5.82,0,0,1-5.92,5.91A6,6,0,0,1,431,288.92Z"/><path class="cls-5" d="M502.46,285.24a41.43,41.43,0,0,1-16-16.69,53.49,53.49,0,0,1,0-48.88,41.4,41.4,0,0,1,16-16.68q10.37-6,24.17-6.05T550.74,203a41.84,41.84,0,0,1,16,16.75,52.65,52.65,0,0,1,0,48.74,41.86,41.86,0,0,1-16,16.76q-10.32,6-24.11,6T502.46,285.24Zm42.43-9.86a31.06,31.06,0,0,0,11.83-12.87,43.6,43.6,0,0,0,0-36.79,31.09,31.09,0,0,0-11.83-12.88,34.39,34.39,0,0,0-18.26-4.73q-10.64,0-18.33,4.73a31.26,31.26,0,0,0-11.76,12.88,43.6,43.6,0,0,0,0,36.79,31.23,31.23,0,0,0,11.76,12.87q7.69,4.74,18.33,4.73A34.3,34.3,0,0,0,544.89,275.38Z"/><path class="cls-5" d="M611.77,287.34a34,34,0,0,1-14.19-12q-5.52-8.08-5.52-19.78v-51.9a6,6,0,0,1,1.71-4.27A5.62,5.62,0,0,1,598,197.6a6,6,0,0,1,6,6v52.3a23.93,23.93,0,0,0,3.61,13.4,22.65,22.65,0,0,0,9.53,8.28,30.21,30.21,0,0,0,25.23,0,22.63,22.63,0,0,0,9.52-8.28,23.93,23.93,0,0,0,3.61-13.4v-52.3a6,6,0,0,1,1.71-4.27,5.62,5.62,0,0,1,4.21-1.77,6,6,0,0,1,6,6v51.9q0,11.7-5.52,19.78a34,34,0,0,1-14.19,12,43.09,43.09,0,0,1-36,0Z"/></svg>