<svg id="Vrstva_2" data-name="Vrstva 2" xmlns="http://www.w3.org/2000/svg" viewBox="0 0 623.87 163.08"><defs><style>.cls-1,.cls-5{fill:#add95b;}.cls-1,.cls-2,.cls-3,.cls-6{stroke:#add95b;}.cls-1,.cls-6,.cls-8{stroke-miterlimit:10;}.cls-2,.cls-3,.cls-6,.cls-8{fill:none;}.cls-2,.cls-3,.cls-8{stroke-linecap:round;}.cls-2,.cls-3{stroke-linejoin:round;}.cls-2{stroke-width:17px;}.cls-3{stroke-width:15px;}.cls-4{isolation:isolate;}.cls-6,.cls-8{stroke-width:3px;}.cls-7{fill:#87aa45;}.cls-8{stroke:#87aa45;}</style></defs><circle class="cls-1" cx="251.96" cy="16.41" r="15.91" transform="translate(177.89 257.86) rotate(-76.72)"/><polyline class="cls-2" points="227.12 86.54 258.4 79.62 258.4 49.73 293.82 26.48 323.99 53.05"/><polyline class="cls-3" points="341.22 120.09 271.04 120.09 316.42 74.72 316.42 155.58"/><g class="cls-4"><path class="cls-5" d="M35.74,117A5.72,5.72,0,0,1,34,112.75V37.47H7.23A5.38,5.38,0,0,1,1.71,32a5.58,5.58,0,0,1,1.57-4,5.28,5.28,0,0,1,4-1.64H72.66A5.6,5.6,0,0,1,78.31,32a5.24,5.24,0,0,1-1.64,3.94,5.59,5.59,0,0,1-4,1.58H46v75.28A5.59,5.59,0,0,1,44.21,117a5.92,5.92,0,0,1-4.27,1.71A5.71,5.71,0,0,1,35.74,117Z" transform="translate(-0.21)"/><path class="cls-5" d="M94.47,117a5.72,5.72,0,0,1-1.71-4.21V32.34a6,6,0,0,1,1.71-4.27,5.61,5.61,0,0,1,4.2-1.77h30.62q17.86,0,26.8,7.36T165,53a25.08,25.08,0,0,1-4.4,14.39,24.47,24.47,0,0,1-12.81,9.39,18.07,18.07,0,0,1,12.94,11.76,51.56,51.56,0,0,1,3.49,18.2v6a5.84,5.84,0,0,1-5.92,5.92,5.94,5.94,0,0,1-4.4-1.65,5.77,5.77,0,0,1-1.64-4.27v-3.94a58.52,58.52,0,0,0-1.18-12.15,19.66,19.66,0,0,0-5.65-10q-4.47-4.4-13.54-4.4H104.72v30.48a5.59,5.59,0,0,1-1.78,4.21,5.92,5.92,0,0,1-4.27,1.71A5.71,5.71,0,0,1,94.47,117Zm34-46q11.3,0,17.93-4.47a14.31,14.31,0,0,0,6.64-12.61q0-7.87-5.72-12.09t-19.51-4.2H104.72V71Z" transform="translate(-0.21)"/><path class="cls-5" d="M188,117a5.72,5.72,0,0,1-1.71-4.21V31.69A5.92,5.92,0,0,1,188,27.42a5.57,5.57,0,0,1,4.2-1.78,6.08,6.08,0,0,1,6.05,6.05v81.06a5.63,5.63,0,0,1-1.78,4.21,5.93,5.93,0,0,1-4.27,1.71A5.69,5.69,0,0,1,188,117Z" transform="translate(-0.21)"/></g><path class="cls-6" d="M35.74,117A5.7,5.7,0,0,1,34,112.75V37.47H7.23a5.38,5.38,0,0,1-5.52-5.24V32a5.57,5.57,0,0,1,1.57-4,5.28,5.28,0,0,1,4-1.64H72.66a5.6,5.6,0,0,1,5.65,5.55V32a5.23,5.23,0,0,1-1.64,3.94,5.58,5.58,0,0,1-4,1.58H46v75.28A5.64,5.64,0,0,1,44.21,117a5.91,5.91,0,0,1-4.27,1.71A5.7,5.7,0,0,1,35.74,117Z" transform="translate(-0.21)"/><path class="cls-6" d="M94.47,117a5.7,5.7,0,0,1-1.71-4.21V32.34a6,6,0,0,1,1.71-4.27,5.61,5.61,0,0,1,4.2-1.77h30.62q17.86,0,26.8,7.36A23.82,23.82,0,0,1,165,53a25.12,25.12,0,0,1-4.4,14.39,24.46,24.46,0,0,1-12.81,9.39,18.07,18.07,0,0,1,12.94,11.76,51.53,51.53,0,0,1,3.49,18.2v6a5.83,5.83,0,0,1-5.76,5.92h-.16a5.94,5.94,0,0,1-4.4-1.65,5.8,5.8,0,0,1-1.64-4.27v-3.94a58.34,58.34,0,0,0-1.18-12.15,19.69,19.69,0,0,0-5.65-10q-4.47-4.4-13.54-4.4H104.72V112.7a5.6,5.6,0,0,1-1.78,4.21,5.91,5.91,0,0,1-4.27,1.71A5.68,5.68,0,0,1,94.47,117Zm34-46q11.29,0,17.93-4.46A14.34,14.34,0,0,0,153,53.88q0-7.87-5.72-12.09t-19.51-4.2H104.72V71Z" transform="translate(-0.21)"/><path class="cls-6" d="M188,117a5.7,5.7,0,0,1-1.71-4.21V31.69A5.91,5.91,0,0,1,188,27.42a5.56,5.56,0,0,1,4.2-1.78,6.06,6.06,0,0,1,6,6.05v81.06a5.63,5.63,0,0,1-1.77,4.21,5.93,5.93,0,0,1-4.27,1.71A5.66,5.66,0,0,1,188,117Z" transform="translate(-0.21)"/><path class="cls-7" d="M386.16,117a5.63,5.63,0,0,1-1.77-4.21V79.25l-31.4-44a6.63,6.63,0,0,1-1.05-3.54,6,6,0,0,1,1.64-4.27,5.39,5.39,0,0,1,4.14-1.78,6,6,0,0,1,5.25,3L390.43,68.6,417.9,28.66a6,6,0,0,1,5.25-3,5.64,5.64,0,0,1,4.21,1.78,5.48,5.48,0,0,1,1.57,4.27,6.63,6.63,0,0,1-1.05,3.54l-31.53,44v33.5a5.83,5.83,0,0,1-5.76,5.92h-.16A6,6,0,0,1,386.16,117Z" transform="translate(-0.21)"/><path class="cls-8" d="M386.16,117a5.63,5.63,0,0,1-1.77-4.21V79.25l-31.4-44a6.63,6.63,0,0,1-1.05-3.54,6,6,0,0,1,1.64-4.27,5.39,5.39,0,0,1,4.14-1.78,6,6,0,0,1,5.25,3L390.43,68.6,417.9,28.66a6,6,0,0,1,5.25-3,5.64,5.64,0,0,1,4.21,1.78,5.48,5.48,0,0,1,1.57,4.27,6.63,6.63,0,0,1-1.05,3.54l-31.53,44v33.5a5.83,5.83,0,0,1-5.76,5.92h-.16A6,6,0,0,1,386.16,117Z" transform="translate(-0.21)"/><path class="cls-7" d="M457.62,113.28a41.39,41.39,0,0,1-16-16.69,53.47,53.47,0,0,1,0-48.87,41.39,41.39,0,0,1,16-16.69q10.38-6,24.17-6t24.11,6a41.87,41.87,0,0,1,16,16.75,52.69,52.69,0,0,1,0,48.75,41.87,41.87,0,0,1-16,16.75q-10.31,6-24.11,6T457.62,113.28Zm42.44-9.85a31.18,31.18,0,0,0,11.82-12.88,43.51,43.51,0,0,0,0-36.79,31.18,31.18,0,0,0-11.82-12.88,34.37,34.37,0,0,0-18.27-4.73q-10.64,0-18.32,4.73a31.16,31.16,0,0,0-11.76,12.88,43.51,43.51,0,0,0,0,36.79,31.16,31.16,0,0,0,11.76,12.88q7.68,4.72,18.32,4.73a34.37,34.37,0,0,0,18.27-4.73Z" transform="translate(-0.21)"/><path class="cls-7" d="M566.93,115.38a34,34,0,0,1-14.19-12q-5.5-8.09-5.51-19.77V31.71a5.93,5.93,0,0,1,1.7-4.27,5.61,5.61,0,0,1,4.23-1.8,6.06,6.06,0,0,1,6,6.05V84a23.9,23.9,0,0,0,3.62,13.4,22.54,22.54,0,0,0,9.52,8.28,30.21,30.21,0,0,0,25.23,0,22.6,22.6,0,0,0,9.52-8.28A23.9,23.9,0,0,0,610.67,84V31.69a5.91,5.91,0,0,1,1.71-4.27,5.53,5.53,0,0,1,4.2-1.78,6.06,6.06,0,0,1,6,6.05v51.9q0,11.68-5.52,19.77a33.93,33.93,0,0,1-14.18,12,43.11,43.11,0,0,1-36,0Z" transform="translate(-0.21)"/><path class="cls-8" d="M457.62,113.28a41.39,41.39,0,0,1-16-16.69,53.47,53.47,0,0,1,0-48.87,41.39,41.39,0,0,1,16-16.69q10.38-6,24.17-6t24.11,6a41.87,41.87,0,0,1,16,16.75,52.69,52.69,0,0,1,0,48.75,41.87,41.87,0,0,1-16,16.75q-10.31,6-24.11,6T457.62,113.28Zm42.44-9.85a31.18,31.18,0,0,0,11.82-12.88,43.51,43.51,0,0,0,0-36.79,31.18,31.18,0,0,0-11.82-12.88,34.37,34.37,0,0,0-18.27-4.73q-10.64,0-18.32,4.73a31.16,31.16,0,0,0-11.76,12.88,43.51,43.51,0,0,0,0,36.79,31.16,31.16,0,0,0,11.76,12.88q7.68,4.72,18.32,4.73a34.37,34.37,0,0,0,18.27-4.73Z" transform="translate(-0.21)"/><path class="cls-8" d="M566.93,115.38a34,34,0,0,1-14.19-12q-5.5-8.09-5.51-19.77V31.71a5.93,5.93,0,0,1,1.7-4.27,5.61,5.61,0,0,1,4.23-1.8,6.06,6.06,0,0,1,6,6.05V84a23.9,23.9,0,0,0,3.62,13.4,22.54,22.54,0,0,0,9.52,8.28,30.21,30.21,0,0,0,25.23,0,22.6,22.6,0,0,0,9.52-8.28A23.9,23.9,0,0,0,610.67,84V31.69a5.91,5.91,0,0,1,1.71-4.27,5.53,5.53,0,0,1,4.2-1.78,6.06,6.06,0,0,1,6,6.05v51.9q0,11.68-5.52,19.77a33.93,33.93,0,0,1-14.18,12,43.11,43.11,0,0,1-36,0Z" transform="translate(-0.21)"/></svg>