<svg xmlns="http://www.w3.org/2000/svg" width="131.977" height="40.811" viewBox="0 0 131.977 40.811">
  <g id="triathlon" transform="translate(-0.02 0.002)">
    <path id="Path_7" data-name="Path 7" d="M66.1,216.891l13.959-6.884a18.778,18.778,0,0,0-1.815-1.57,11.022,11.022,0,0,0-7.754-1.432c-1.473.207-2.921.6-4.4.914-.11.022-.223.038-.572.1a7.017,7.017,0,0,1,.7-.788,10.106,10.106,0,0,1,4.475-1.972,27.713,27.713,0,0,1,2.873-.44,13.73,13.73,0,0,1,7.93,1.533,12.248,12.248,0,0,1,5.6,6.118c.3.694.6,1.382.942,2.142-1.379.138-2.647.16-3.872.411-2.679.553-5.339,1.256-8,1.834a21.147,21.147,0,0,1-9.283.248A7.571,7.571,0,0,1,66.1,216.891Z" transform="translate(-62.642 -192.322)" fill="#64a3c2"/>
    <path id="Path_8" data-name="Path 8" d="M90.654,244.177c-1.467,0-2.933-.066-4.4,0a61.593,61.593,0,0,0-11.529,1.991,33.825,33.825,0,0,1-9.3,1.35c-2.914-.1-5.615-.795-7.751-2.946-.408-.415-.763-.886-1.256-1.476a2.2,2.2,0,0,1,.465.066,14.669,14.669,0,0,0,9.7,1.545c3.14-.452,6.237-1.294,9.352-1.956a23.371,23.371,0,0,1,11.8.107c1.03.314,2.007.795,3.005,1.2Z" transform="translate(-56.4 -217.915)" fill="#64a3c2"/>
    <path id="Path_9" data-name="Path 9" d="M142.331,206.25a3.213,3.213,0,0,1,3.332,3.74,5.1,5.1,0,0,1-3.882,4.434,2.893,2.893,0,0,1-3.74-2.252C137.307,209.491,139.649,206.259,142.331,206.25Z" transform="translate(-112.295 -193.36)" fill="#4da5c6"/>
    <path id="Path_10" data-name="Path 10" d="M204.157,198.063a38.494,38.494,0,0,0-5.025,5.449c1.055.082,1.963.135,2.867.229a22.289,22.289,0,0,1,2.333.33c2.2.471,3,2.016,2.1,4.067a18.5,18.5,0,0,1-4.365,6.143,44.289,44.289,0,0,1-4.083,3.1c-.173.129-.474.079-.716.113a2.594,2.594,0,0,1,.166-.751c1.5-2.544,3.049-5.059,4.529-7.616.5-.867.38-1.068-.647-1.115-1.95-.088-3.9-.129-5.857-.11a1.542,1.542,0,0,0-1.03.594,23.594,23.594,0,0,1-7.961,7.053,17.616,17.616,0,0,1-9.236,2.066,8.189,8.189,0,0,1-1.149-.232l-.025-.214a4.577,4.577,0,0,1,.782-.355,20.05,20.05,0,0,0,11.978-8.363c1.953-2.76,3.806-5.593,5.728-8.376,1.134-1.642,2.314-3.25,3.454-4.874a6.072,6.072,0,0,0,.314-.546,6.2,6.2,0,0,0-2.968-.427c-3.539.135-6.485,1.743-9.239,3.8-.2.151-.4.314-.6.465l-.188-.135a12.47,12.47,0,0,1,.788-1.423,14.076,14.076,0,0,1,6.56-4.767,14.634,14.634,0,0,1,7.364-.942c3.633.524,6.017,2.657,7.594,5.844.031.066.044.138.075.2.741,1.529,1.369,1.806,3.021,1.419a12.925,12.925,0,0,0,4.2-1.749,4.917,4.917,0,0,1,.609-.286l.179.144a4.855,4.855,0,0,1-.468.864,12.207,12.207,0,0,1-5.609,4.007,3.48,3.48,0,0,1-3.979-1.36c-.405-.612-.788-1.24-1.187-1.859A3.262,3.262,0,0,0,204.157,198.063Z" transform="translate(-138.468 -182.969)" fill="#9db98b"/>
    <path id="Path_11" data-name="Path 11" d="M272.784,174.126a5.779,5.779,0,0,1-.873,3.118,2.707,2.707,0,0,1-4.186.725,4.711,4.711,0,0,1-1.175-5.923,3.362,3.362,0,0,1,3.59-1.774,3.49,3.49,0,0,1,2.616,3.282C272.775,173.746,272.775,173.937,272.784,174.126Z" transform="translate(-200.145 -168.631)" fill="#9db98b"/>
    <path id="Path_12" data-name="Path 12" d="M384.894,193.2a20.347,20.347,0,0,1-2.076.8,19.213,19.213,0,0,1-5.967.594,2.577,2.577,0,0,1-2.779-2.1,23.177,23.177,0,0,1-.816-3.536c-.1-.678-.361-.666-.835-.5-.7.245-1.41.455-2.082.754-1.256.556-2.478,1.165-3.834,1.806.813.543,1.489,1.014,2.2,1.454.86.546,1.759,1.036,2.6,1.611a3.407,3.407,0,0,1,1.589,2.729,21.612,21.612,0,0,1-1.385,7.691c-.462,1.473-1.1,2.892-1.686,4.321a5.24,5.24,0,0,1-.6.889l-.251-.1c.044-.455.082-.914.138-1.369a39.712,39.712,0,0,0,.512-9.255,2.826,2.826,0,0,0-1.652-2.406c-1.708-.842-3.417-1.69-5.1-2.581a10.919,10.919,0,0,1-2.029-1.319,3.117,3.117,0,0,1,.264-5.257,61.38,61.38,0,0,1,5.625-2.955c1.322-.656,2.682-1.237,4.042-1.815a10.642,10.642,0,0,1,1.834-.581A2.494,2.494,0,0,1,375.9,183.9c.427,1.5.572,3.081.848,4.623.173.977.333,1.953.55,2.921a1.2,1.2,0,0,0,1.209.923c1.8.135,3.593.264,5.389.4.314.022.628.069.942.107Z" transform="translate(-264.319 -176.703)" fill="#cf7b70"/>
    <path id="Path_13" data-name="Path 13" d="M325.662,247.493a10.907,10.907,0,1,1,10.891-10.882A10.907,10.907,0,0,1,325.662,247.493Zm.314-2.782a8.572,8.572,0,1,1,.006,0Z" transform="translate(-233.596 -206.687)" fill="#c37f73"/>
    <path id="Path_14" data-name="Path 14" d="M418.087,247.542a10.9,10.9,0,0,1-.2-21.795,10.9,10.9,0,1,1,.2,21.795Zm.283-2.786a8.6,8.6,0,1,0-6.1-2.562,8.636,8.636,0,0,0,6.1,2.562Z" transform="translate(-296.979 -206.733)" fill="#cf7b70"/>
    <path id="Path_15" data-name="Path 15" d="M419.935,168.9a5.4,5.4,0,0,1-1.08,3.407,2.637,2.637,0,0,1-3.7.55,4.431,4.431,0,0,1-1.313-6.036,3.189,3.189,0,0,1,5.895.9A9.371,9.371,0,0,1,419.935,168.9Z" transform="translate(-301.119 -165.2)" fill="#cf7b70"/>
    <path id="Path_17" data-name="Path 17" d="M424.166,248.574a8.53,8.53,0,1,1,0,.013Z" transform="translate(-302.774 -210.551)" fill="none"/>
  </g>
</svg>
