<svg xmlns="http://www.w3.org/2000/svg" width="25.005" height="22.227" viewBox="0 0 25.005 22.227">
  <path id="Icon_awesome-shopping-cart" data-name="Icon awesome-shopping-cart" d="M22.926,13.081l2.052-9.03a1.042,1.042,0,0,0-1.016-1.273H6.911L6.514.833A1.042,1.042,0,0,0,5.493,0H1.042A1.042,1.042,0,0,0,0,1.042v.695A1.042,1.042,0,0,0,1.042,2.778H4.076l3.05,14.909a2.431,2.431,0,1,0,2.911.372h9.1a2.43,2.43,0,1,0,2.761-.452l.24-1.054a1.042,1.042,0,0,0-1.016-1.273H9.469l-.284-1.389H21.91A1.042,1.042,0,0,0,22.926,13.081Z" fill="#96ba86"/>
</svg>
